<svg width="492" height="700" viewBox="0 0 492 700" fill="none" xmlns="http://www.w3.org/2000/svg">
<path d="M341.733 515.71L242.088 382.418H394.917V691C394.917 694.866 398.051 698 401.917 698H482.243C486.109 698 489.243 694.866 489.243 691V183.901C489.243 180.035 486.109 176.901 482.243 176.901H401.917C398.051 176.901 394.917 180.035 394.917 183.901V321.385H214.069L337.497 188.668C341.661 184.191 338.486 176.901 332.371 176.901H233.233C231.197 176.901 229.262 177.788 227.932 179.329L132.892 289.522L132.879 289.537L132.867 289.552L100.842 328.209V9C100.842 5.13401 97.7079 2 93.8419 2H9C5.13401 2 2 5.13399 2 8.99999V519.901C2 523.767 5.13401 526.901 9 526.901H11.2573H93.2765H93.8419C97.7079 526.901 100.842 523.767 100.842 519.901V428.578L140.117 393.192L234.031 523.984C235.346 525.815 237.463 526.901 239.717 526.901H336.127C341.89 526.901 345.184 520.326 341.733 515.71Z" stroke="black" stroke-width="4"/>
</svg>
