<?xml version="1.0" encoding="UTF-8"?><svg id="Layer_1" xmlns="http://www.w3.org/2000/svg" viewBox="0 0 200 200"><defs><style>.cls-1,.cls-2{stroke-width:0px;}.cls-2{fill:#cff0cd;}</style></defs><ellipse class="cls-2" cx="82.94" cy="37.12" rx="36.21" ry="35.18"/><ellipse class="cls-2" cx="132.02" cy="61.79" rx="32.02" ry="29.92"/><ellipse class="cls-2" cx="54.51" cy="66.55" rx="34.71" ry="20.94"/><ellipse class="cls-2" cx="51.45" cy="150.52" rx="35.84" ry="48.43"/><ellipse class="cls-2" cx="69.78" cy="98.7" rx="23.04" ry="36.91"/><ellipse class="cls-2" cx="41.81" cy="102.4" rx="40.56" ry="23.63"/><ellipse class="cls-2" cx="111.37" cy="90.61" rx="56.86" ry="45"/><ellipse class="cls-2" cx="172.42" cy="103.43" rx="26.33" ry="24.66"/><ellipse class="cls-2" cx="154.16" cy="144.63" rx="38.01" ry="29.54"/><ellipse class="cls-2" cx="107.93" cy="165.49" rx="38.15" ry="32.94"/><path class="cls-2" d="M105.38,129.71c0,11.49-7.97,20.8-17.8,20.8s-17.8-9.31-17.8-20.8,7.97-20.82,17.8-20.82,17.8,9.33,17.8,20.82Z"/><path class="cls-1" d="M68.18,139.23c1.07,4-2.9,9.97-7.31,10.58-2.21.31-4.43-.76-10.97-7.85-8.55-9.27-12.82-13.91-14.62-19.11-3.63-10.48-1.03-19.93.33-24.91.61-2.21,3.33-11.52,11.3-20.47,5.76-6.47,11.28-9.4,19.94-13.99,9.88-5.24,16.62-8.81,19.61-6.14,2.99,2.67,1.78,11.19-2.66,15.01-3.35,2.88-5.9.81-11.63,2.73-8.45,2.83-13.15,10.77-17.28,17.74-2.16,3.65-4.68,7.99-5.65,14.33-.42,2.75-1,6.8.33,11.6,1.96,7.09,6.86,11.43,8.64,12.97,5.54,4.78,9.1,4.25,9.97,7.51Z"/><path class="cls-1" d="M85.76,44.13l-7.1,42.74s0,12.45,12.65,6.4c12.65-6.06,38.89-18.85,38.89-18.85,0,0,8.64-9.42,0-14.47s-33.02-17.84-33.02-17.84c0,0-6.17-3.36-11.42,2.02Z"/><path class="cls-1" d="M132.06,126.59l-7.1,41.74s-4.94,9.09-16.05,2.36c-11.11-6.73-30.25-16.83-30.25-16.83,0,0-5.25-10.43,3.7-14.81,8.95-4.38,36.73-18.18,36.73-18.18,0,0,11.11-5.05,12.96,5.72Z"/><path class="cls-1" d="M146.56,76.1c-1.8-1.46-2.77-3.78-2.47-6.06.45-3.45,3.56-4.85,4.01-5.05,1.64-.74,3.62-.79,6.48.34,8.84,3.48,13.72,13.35,16.41,17.33s4.64,8.59,5.39,13.5c.86,5.58.06,9.88-.81,14.61-.56,3.01-1.64,8.65-4.94,15.15-.65,1.29-3.24,6.25-8.02,11.44-3.28,3.57-6.18,5.7-8.95,7.74-2.69,1.98-5.88,4.3-10.49,6.4-3.33,1.51-5.69,2.15-8.95,3.03-5.56,1.5-6.32,1.01-6.62.77-2.64-2.12-1.59-10.87,2.71-14.08,1.52-1.13,2.82-1.11,4.59-1.42,6.84-1.22,11.6-5.93,15.74-10.03,2.33-2.31,6.94-6.96,10.01-14.71,1.01-2.54,2.69-6.89,2.66-12.7-.02-4.25-.95-7.37-1.23-8.25-1.08-3.44-2.59-5.75-3.07-6.46-.61-.91-1.62-2.25-6.13-6.24-1.58-1.4-3.72-3.23-6.32-5.3Z"/><path class="cls-1" d="M77.92,101.76c1.28-.32,3.08-.62,5.63-.82,2.58-.2,4.45.14,5.75,1.03,1.24.83,2.14,2.3,2.26,4.09s-.38,3.37-1.42,4.49c-1.34,1.45-3.41,2.21-5.88,2.41-.55.04-1.04.05-1.43.03l.43,6.56-4.14.33-1.2-18.11ZM82.61,109.77c.36.05.8.05,1.41,0,2.22-.17,3.52-1.4,3.4-3.28-.11-1.69-1.36-2.6-3.44-2.44-.85.07-1.42.19-1.72.3l.36,5.42Z"/><path class="cls-1" d="M102.06,118.07l-.33-1.32h-.08c-.81,1.14-2.14,1.82-3.73,1.94-2.72.21-4.46-1.62-4.61-3.74-.23-3.46,2.79-5.37,7.54-5.71v-.19c-.06-.71-.51-1.69-2.57-1.52-1.37.11-2.8.68-3.64,1.3l-.94-2.61c.9-.59,2.69-1.39,5.14-1.58,4.47-.35,6.07,2.15,6.28,5.29l.31,4.63c.08,1.28.22,2.5.41,3.23l-3.76.29ZM101.15,111.82c-2.2.14-3.86.8-3.76,2.4.07,1.06.82,1.52,1.75,1.45,1.04-.08,1.85-.83,2.07-1.7.04-.22.05-.47.04-.71l-.09-1.44Z"/><path class="cls-1" d="M108.32,108.46c-.11-1.66-.26-3.07-.39-4.24l3.62-.28.31,1.81h.08c.49-.89,1.78-2.28,4-2.46,2.74-.22,4.92,1.42,5.18,5.34l.52,7.9-4.17.33-.49-7.38c-.11-1.72-.79-2.84-2.3-2.72-1.15.09-1.79.93-2.01,1.72-.09.25-.12.67-.1,1.05l.51,7.68-4.17.33-.6-9.07Z"/><path class="cls-1" d="M128.38,98.79l.25,3.81,2.99-.23.2,3.05-2.99.23.32,4.82c.11,1.61.54,2.31,1.8,2.21.52-.04.93-.13,1.23-.21l.23,3.13c-.53.26-1.51.48-2.69.57-1.34.11-2.5-.27-3.2-.9-.82-.73-1.29-1.98-1.41-3.86l-.36-5.45-1.78.14-.2-3.05,1.78-.14-.19-2.89,4.03-1.25Z"/></svg>